# xmcd
#
# Track frame offsets:
#	150
#	24527
#	50315
#	73415
#	98785
#	125045
#	147412
#	167050
#	196585
#	221840
#	251170
#
# Disc length: 3649 seconds
# Revision: 4
# Processed by: cddbd v1.5.2PL0 Copyright (c) Steve Scherf et al.
# Submitted via: dBpowerAMP V12.0
#
DISCID=a90e3f0b
DTITLE=Bobby Parker - Shine me up
DYEAR=1995
DGENRE=Blues
TTITLE0=Man's Gotta do What a Man's Gotta do
TTITLE1=Kick it Around With You
TTITLE2=It's Unfair
TTITLE3=Stamps on Your Letter
TTITLE4=Shine me up
TTITLE5=Wild Thing
TTITLE6=Skeezer
TTITLE7=Somebody's Comin' in my Back Door
TTITLE8=Splib's Groove
TTITLE9=Drive me Home
TTITLE10=Get Hip
EXTD=
EXTT0=
EXTT1=
EXTT2=
EXTT3=
EXTT4=
EXTT5=
EXTT6=
EXTT7=
EXTT8=
EXTT9=
EXTT10=
PLAYORDER=
